Coordinates
version=1
nRows=13
nColumns=36
inDegrees=yes

Units are S.I. units (second, meters, Newtons, ...)
If the header above contains a line with 'inDegrees', this indicates whether rotational values are in degrees (yes) or radians (no).

endheader
time	pelvis_tilt	pelvis_list	pelvis_rotation	pelvis_tx	pelvis_ty	pelvis_tz	hip_flexion_r	hip_adduction_r	hip_rotation_r	knee_angle_r	knee_angle_r_beta	ankle_angle_r	subtalar_angle_r	mtp_angle_r	hip_flexion_l	hip_adduction_l	hip_rotation_l	knee_angle_l	knee_angle_l_beta	ankle_angle_l	subtalar_angle_l	mtp_angle_l	lumbar_extension	lumbar_bending	lumbar_rotation	arm_flex_r	arm_add_r	arm_rot_r	elbow_flex_r	pro_sup_r	arm_flex_l	arm_add_l	arm_rot_l	elbow_flex_l	pro_sup_l
      0.00000000	      2.78862083	      3.73777294	      6.21725486	     -0.15308742	      0.92536135	     -0.28621454	     24.64143386	     -6.70202106	    -14.99307903	      1.45492371	      0.02539321	      9.50535677	     -8.80097283	     -5.41997911	    -20.72616501	      3.70517940	     -1.18551243	      9.45531730	      0.16502642	     14.80693030	     -2.72922255	     -5.41997911	     -9.37307541	     -3.82474549	    -10.06566528	    -14.55257187	     -0.52769570	    -24.97505681	     26.26630670	    112.53772638	     15.13852590	     -8.77960124	      0.65634373	     54.71442760	    109.25217127
      0.01000000	      2.76320241	      3.51846714	      6.40731805	     -0.13795617	      0.92427428	     -0.28472961	     24.19785190	     -6.29610203	    -14.67193986	      1.98332516	      0.03461555	      9.82906038	     -9.14775614	     -5.43718557	    -21.14025261	      3.08316893	     -1.20223889	     10.30441987	      0.17984605	     14.10234981	     -2.64886755	     -5.43718557	     -9.12025319	     -3.56317484	    -10.19647785	    -14.63711314	     -0.63841347	    -25.06735283	     26.23467596	    112.49759850	     14.67377402	     -8.67821813	      0.63813134	     54.32950317	    109.25621567
      0.02000000	      2.71642844	      3.27821836	      6.54908675	     -0.12283445	      0.92317410	     -0.28310631	     23.82380281	     -5.84843416	    -14.33012652	      2.55597803	      0.04461023	      9.92609821	     -9.43489630	     -5.45048243	    -21.50145231	      2.45627336	     -1.20716462	     11.18210837	      0.19516461	     13.35040356	     -2.56599567	     -5.45048243	     -8.83795324	     -3.27172605	    -10.26626061	    -14.69771364	     -0.73490036	    -25.17434917	     26.18965855	    112.46322074	     14.19599361	     -8.54195430	      0.56984873	     53.95370629	    109.25138142
      0.03000000	      2.58325653	      2.97776960	      6.65590094	     -0.10748188	      0.92210252	     -0.28133536	     23.52626365	     -5.31891994	    -14.08732733	      3.02047336	      0.05271721	      9.61393086	    -10.01561780	     -5.48051215	    -21.61117885	      1.75551648	     -1.62951334	     12.29615043	      0.21460831	     12.25016210	     -2.61161122	     -5.48051215	     -8.38474449	     -2.94480421	    -10.29595476	    -14.76409104	     -0.83615300	    -25.41376980	     26.12947677	    112.39845477	     13.62262727	     -8.32548499	      0.23845963	     53.36914133	    109.25922164
      0.04000000	      2.47398197	      2.62807558	      6.72212298	     -0.09205358	      0.92128845	     -0.27939372	     23.17942685	     -4.71578827	    -13.86855087	      3.36800932	      0.05878285	      8.83524411	    -10.48217875	     -5.50730670	    -21.67164900	      1.02259248	     -1.83964571	     13.51770072	      0.23592838	     11.08268021	     -2.72516713	     -5.50730670	     -7.97061422	     -2.54337419	    -10.28770574	    -14.79501266	     -0.95088745	    -25.60646690	     26.13414393	    112.35428577	     12.98204228	     -8.08265231	     -0.12115505	     52.80989330	    109.27035376
      0.05000000	      2.32651211	      2.21544126	      6.66808307	     -0.07656504	      0.92069640	     -0.27717642	     22.78720630	     -3.95182836	    -13.02078046	      3.42955341	      0.05985700	      6.58902280	    -12.55217990	     -5.61206713	    -21.59830449	      0.30018081	     -1.91556368	     14.83199266	      0.25886711	      9.62653978	     -3.31597143	     -5.61206713	     -7.49907284	     -2.08335440	    -10.19490585	    -14.75130604	     -1.05516612	    -25.99982000	     26.17536034	    112.28372503	     12.20011282	     -7.73524813	     -1.03508174	     52.22476497	    109.54140768
      0.06000000	      2.23621385	      1.69659779	      6.64906720	     -0.06090098	      0.92055113	     -0.27498989	     22.40732410	     -3.18385733	    -13.02073801	      3.71092159	      0.06476780	      5.12501275	    -12.91226456	     -5.65294341	    -21.34574502	     -0.59962982	     -2.28802570	     16.52193514	      0.28836217	      7.98071751	     -3.70265585	     -5.65294341	     -7.05199307	     -1.48281509	    -10.02221441	    -14.76833021	     -1.22513141	    -26.03906307	     26.20553929	    112.27915059	     11.44587204	     -7.41968406	     -1.51056043	     51.43773850	    109.57731456
      0.07000000	      2.18340573	      1.13106685	      6.54474036	     -0.04524770	      0.92081189	     -0.27267591	     22.01710082	     -2.37890960	    -13.08994201	      4.07079477	      0.07104877	      3.67528333	    -13.25790326	     -5.67705304	    -20.91286100	     -1.53006966	     -2.69972293	     18.55498662	      0.32384561	      6.06322713	     -4.15737499	     -5.67705304	     -6.68440495	     -0.79494160	     -9.77969498	    -14.71190682	     -1.43993425	    -26.07140578	     26.27540377	    112.27086353	     10.63892903	     -7.08021223	     -2.01710964	     50.58524813	    109.55313146
      0.08000000	      2.08519466	      0.53908647	      6.30404761	     -0.02972949	      0.92137363	     -0.27026759	     21.62751447	     -1.47575903	    -12.30036460	      4.32836045	      0.07554414	      0.57717898	    -15.97256045	     -5.79126410	    -20.29211954	     -2.35018957	     -2.83212279	     20.73450508	      0.36188538	      3.42300742	     -5.73682514	     -5.79126410	     -6.26161436	     -0.06895712	     -9.42847127	    -14.57093102	     -1.69957913	    -26.11742249	     26.34736469	    112.23644362	      9.76683127	     -6.57810640	     -3.07569056	     49.60094104	    109.86406484
      0.09000000	      2.11294971	     -0.19704098	      6.05437095	     -0.01418559	      0.92237374	     -0.26787351	     21.27986143	     -0.55996484	    -12.60536244	      5.12899025	      0.08951777	     -0.51623597	    -16.08609033	     -5.81581919	    -19.48240742	     -3.45738189	     -3.45900246	     23.44400187	      0.40917502	      1.09046711	     -6.19763688	     -5.81581919	     -5.99226024	      0.85842904	     -8.95380837	    -14.44908147	     -1.99344138	    -26.11647753	     26.49920939	    112.23684536	      8.94225881	     -6.15661634	     -3.58701588	     48.54356297	    109.81214161
      0.10000000	      2.08234961	     -0.85116374	      5.70758403	      0.00104497	      0.92355173	     -0.26554327	     21.03530928	      0.26059350	    -12.55819785	      6.07656142	      0.10605600	     -2.07517710	    -17.17806377	     -5.88660443	    -18.40963308	     -4.34043895	     -3.71721285	     26.38061009	      0.46042850	     -2.16126716	     -8.01038551	     -5.88660443	     -5.69510705	      1.71482451	     -8.32993752	    -14.33544022	     -2.29743370	    -26.22059175	     26.79390836	    112.22712865	      8.20707683	     -5.58281837	     -4.45962093	     47.19326110	    109.89651167
      0.11000000	      2.11295095	     -1.57740838	      5.29971419	      0.01602803	      0.92492560	     -0.26314982	     20.76364848	      1.13824175	    -12.70696581	      7.17835536	      0.12528594	     -2.94089422	    -17.58023589	     -5.94176231	    -17.13474421	     -5.35974518	     -4.17907097	     29.68620120	      0.51812195	     -5.44175246	     -9.43966127	     -5.94176231	     -5.52529963	      2.66902559	     -7.60012005	    -14.16638017	     -2.62428294	    -26.31862630	     27.16755086	    112.24365758	      7.46887513	     -5.06038912	     -5.14019506	     45.90819416	    109.92104815
      0.12000000	      2.23608766	     -2.41212849	      4.83387438	      0.03080853	      0.92646233	     -0.26063602	     20.35536470	      2.16628096	    -12.89225691	      8.24958215	      0.14398237	     -3.25565281	    -17.63292085	     -5.96347756	    -15.75648154	     -6.58344466	     -4.83802655	     33.23653642	      0.58008699	     -8.55546945	    -10.20169267	     -5.96347756	     -5.49945627	      3.75098943	     -6.77750867	    -13.93288465	     -2.99765760	    -26.34631435	     27.50857097	    112.26769420	      6.66246050	     -4.59342104	     -5.64137465	     44.81664868	    109.85204670
